<svg width="313" height="77" viewBox="0 0 313 77" fill="none" xmlns="http://www.w3.org/2000/svg">
<path d="M18.4678 1.19326C16.812 1.68839 15.3703 3.06673 14.9136 4.60566C13.8716 8.08497 16.9119 12.4609 21.9222 14.6555C23.4923 15.3514 24.1775 15.3781 25.6334 14.7893C28.1742 13.7991 30.8577 11.5643 31.9426 9.5436C33.0702 7.42925 33.2272 5.50225 32.4136 3.88303C31.8712 2.77233 31.0433 1.99618 29.8443 1.47428C29.0021 1.09958 28.7452 1.04606 27.6746 1.04606C26.2757 1.04606 25.4336 1.30031 24.4487 1.99617L23.8063 2.45116L23.2782 2.06309C22.0221 1.11297 19.9809 0.738271 18.4678 1.19326ZM20.6946 3.92318C21.3369 4.09714 21.8365 4.59228 22.3218 5.55578C22.593 6.10444 22.8357 6.37208 23.1783 6.51928C23.7635 6.78692 23.8777 6.78692 24.4629 6.51928C24.8198 6.37208 25.0482 6.10444 25.3622 5.47549C25.5906 5.0205 25.9903 4.48522 26.2329 4.29787C27.1322 3.57525 28.6167 3.69568 29.3732 4.53875C29.9014 5.15432 30.0156 5.74312 29.8157 6.70663C29.3875 8.66039 27.589 10.6543 25.2195 11.8185L23.9919 12.4207L23.0926 12.0193C21.8936 11.484 20.195 10.293 19.3528 9.3964C17.6827 7.6166 17.2545 5.42196 18.3679 4.41831C19.0102 3.84289 19.7668 3.6823 20.6946 3.92318Z" fill="#338EF7" stroke="#338EF7"/>
<path d="M10.331 19.0061C8.17557 19.3139 6.33421 20.6922 5.53486 22.5791C5.26365 23.208 5.20655 23.6095 5.20655 24.6934C5.19228 25.8844 5.24938 26.1253 5.6205 26.9015C5.97736 27.6776 6.43413 28.146 9.5316 31.0766C11.4443 32.8966 13.0002 34.4087 12.9574 34.4489C12.9288 34.4756 12.5292 34.663 12.0867 34.8503C9.47451 36.0012 8.03282 38.798 8.74653 41.354C8.86072 41.7554 8.98919 42.1836 9.04629 42.3041C9.11766 42.4647 8.98919 42.5583 8.47532 42.6922C7.6046 42.9197 6.29139 43.7226 5.72042 44.3783C5.46349 44.6593 5.04954 45.2883 4.79261 45.77C4.36438 46.5863 4.33583 46.7201 4.33583 48.1119C4.33583 49.4501 4.37866 49.6642 4.73551 50.3868C4.94962 50.8284 5.2351 51.2834 5.3493 51.4038C5.53486 51.6046 5.46349 51.6715 4.5214 52.0863C1.22408 53.5717 0.0107853 57.3053 1.88069 60.1958C2.5373 61.2262 14.4276 72.2663 15.8265 73.1629C21.6646 76.8697 29.0157 76.95 34.7967 73.377C36.3098 72.4403 42.2478 66.9938 43.4326 65.4549C47.6006 60.0084 47.7005 53.0766 43.6895 47.3089C43.2756 46.7201 41.7482 45.1544 39.5072 43.0267L35.9815 39.6812L36.11 38.2092C36.3954 34.9306 37.3946 31.5718 38.3367 30.7688C39.1218 30.0864 39.9497 28.8686 40.2494 27.9586C40.5064 27.1825 40.5349 26.7676 40.5064 25.3893C40.4493 23.8637 40.4207 23.6898 39.9925 22.8869C39.3787 21.736 38.7792 21.0803 37.78 20.4781C36.0243 19.4076 33.6834 19.2336 31.9277 20.0499C30.8428 20.545 30.072 21.2275 28.9301 22.6728C27.4741 24.5061 26.0325 27.5304 25.747 29.3637L25.6328 30.0061L20.4085 25.1217C17.5394 22.4319 14.8701 20.0499 14.4704 19.8224C13.3 19.1265 11.687 18.8054 10.331 19.0061ZM12.5863 22.0973C13.3 22.4319 39.6928 47.0547 40.8204 48.4464C41.791 49.6374 42.7331 51.4841 43.1756 53.0766C43.7181 54.9902 43.7181 57.4525 43.1756 59.3393C42.7331 60.9318 41.791 62.7785 40.8204 63.9695C40.435 64.4512 38.7507 66.1106 37.0663 67.6629C34.6826 69.8709 33.769 70.6337 32.8126 71.169C30.5002 72.5072 28.2449 73.096 25.5329 73.1094C23.82 73.1094 22.8065 72.9755 21.2506 72.5072C20.0659 72.1592 18.2959 71.3028 17.2682 70.5935C16.1833 69.8442 5.10664 59.5534 4.57849 58.8174C4.03608 58.0413 3.90761 57.2785 4.19309 56.3953C4.59277 55.1106 6.10582 54.1873 7.44759 54.388C8.27548 54.5218 8.80363 54.8162 9.85991 55.753C10.7164 56.5291 10.8591 56.6094 11.4015 56.6094C11.9011 56.6094 12.0867 56.5291 12.5006 56.141C12.9574 55.7128 13.0002 55.6058 12.9288 55.1106C12.8575 54.6155 12.6148 54.3479 10.2881 52.1398C8.24694 50.2128 7.67597 49.5839 7.47614 49.0887C6.59114 46.8673 9.00346 44.6058 11.3587 45.4355C11.8868 45.6228 12.5149 46.1179 14.1279 47.6033C16.1262 49.4367 16.2404 49.517 16.7971 49.517C17.9248 49.517 18.6956 48.4464 18.2103 47.5632C18.0818 47.3491 16.6972 45.9707 15.1128 44.4987C13.5284 43.0267 12.1009 41.5815 11.9439 41.2871C11.5157 40.5243 11.53 39.4403 11.9867 38.6776C12.4863 37.8211 13.3428 37.2992 14.3848 37.2323C15.8408 37.1387 16.0549 37.2725 18.9811 39.9622C21.5361 42.3308 21.6646 42.4245 22.207 42.4245C23.249 42.4245 24.0198 41.4744 23.6772 40.6046C23.5916 40.3905 20.2514 37.1387 15.9835 33.1241C8.60379 26.1788 8.4325 26.0182 8.26121 25.3358C7.91863 23.9173 8.70371 22.4988 10.1168 21.9635C10.7449 21.736 11.9439 21.7895 12.5863 22.0973ZM36.0529 22.8333C37.0663 23.4221 37.5231 24.3187 37.5231 25.7506C37.5231 27.0754 37.2804 27.6375 36.2384 28.708C34.9252 30.0596 33.9546 32.4148 33.4264 35.4659C33.2837 36.2688 33.1409 36.9379 33.0981 36.9379C33.0553 36.9379 31.9705 35.9477 30.6715 34.7299L28.3306 32.5353L28.5161 31.1703C28.9015 28.2932 30.2719 25.3759 32.1275 23.4623C33.3122 22.2713 34.6826 22.0438 36.0529 22.8333Z" fill="#338EF7" stroke="#338EF7"/>
<path d="M65.6357 15.752C64.8245 15.752 64.1045 15.9115 63.4756 16.2305C62.8558 16.5404 62.3317 16.9915 61.9033 17.584C61.484 18.1764 61.165 18.8919 60.9463 19.7305C60.7275 20.569 60.6182 21.5124 60.6182 22.5605C60.6182 23.9733 60.7913 25.181 61.1377 26.1836C61.4932 27.1771 62.04 27.9382 62.7783 28.4668C63.5166 28.9863 64.4691 29.2461 65.6357 29.2461C66.4469 29.2461 67.2581 29.1549 68.0693 28.9727C68.8896 28.7904 69.7783 28.5306 70.7354 28.1934V31.748C69.8512 32.1126 68.9808 32.3724 68.124 32.5273C67.2673 32.6914 66.3057 32.7734 65.2393 32.7734C63.1794 32.7734 61.484 32.3496 60.1533 31.502C58.8317 30.6452 57.8519 29.4512 57.2139 27.9199C56.5758 26.3796 56.2568 24.584 56.2568 22.5332C56.2568 21.0202 56.4619 19.6348 56.8721 18.377C57.2822 17.1191 57.8838 16.0299 58.6768 15.1094C59.4697 14.1888 60.4495 13.4779 61.6162 12.9766C62.7829 12.4753 64.1227 12.2246 65.6357 12.2246C66.6292 12.2246 67.6227 12.3522 68.6162 12.6074C69.6188 12.8535 70.5758 13.1953 71.4873 13.6328L70.1201 17.0781C69.3727 16.7227 68.6208 16.4128 67.8643 16.1484C67.1077 15.8841 66.3649 15.752 65.6357 15.752ZM88.3584 32.5H84.1885V20.3457H80.3467C80.1553 22.5879 79.9274 24.4974 79.6631 26.0742C79.3988 27.651 79.0615 28.9362 78.6514 29.9297C78.2412 30.9141 77.7308 31.6341 77.1201 32.0898C76.5094 32.5456 75.7575 32.7734 74.8643 32.7734C74.3721 32.7734 73.93 32.737 73.5381 32.6641C73.1553 32.5911 72.8044 32.4818 72.4854 32.3359V29C72.6859 29.082 72.9001 29.1504 73.1279 29.2051C73.3558 29.2507 73.5882 29.2734 73.8252 29.2734C74.0895 29.2734 74.3402 29.1686 74.5771 28.959C74.8141 28.7493 75.0374 28.3893 75.2471 27.8789C75.4567 27.3594 75.6527 26.6439 75.835 25.7324C76.0264 24.821 76.1995 23.668 76.3545 22.2734C76.5094 20.8789 76.6553 19.1927 76.792 17.2148H88.3584V32.5ZM106.638 24.8301C106.638 26.1061 106.465 27.2363 106.118 28.2207C105.781 29.2051 105.284 30.0391 104.628 30.7227C103.981 31.3971 103.197 31.9076 102.276 32.2539C101.365 32.6003 100.335 32.7734 99.1865 32.7734C98.111 32.7734 97.1221 32.6003 96.2197 32.2539C95.3265 31.9076 94.5472 31.3971 93.8818 30.7227C93.2256 30.0391 92.7152 29.2051 92.3506 28.2207C91.9951 27.2363 91.8174 26.1061 91.8174 24.8301C91.8174 23.1348 92.1182 21.6992 92.7197 20.5234C93.3213 19.3477 94.1781 18.4544 95.29 17.8438C96.402 17.2331 97.7282 16.9277 99.2686 16.9277C100.7 16.9277 101.966 17.2331 103.069 17.8438C104.181 18.4544 105.052 19.3477 105.681 20.5234C106.319 21.6992 106.638 23.1348 106.638 24.8301ZM96.0693 24.8301C96.0693 25.8327 96.1787 26.6758 96.3975 27.3594C96.6162 28.043 96.958 28.5579 97.4229 28.9043C97.8877 29.2507 98.4938 29.4238 99.2412 29.4238C99.9795 29.4238 100.576 29.2507 101.032 28.9043C101.497 28.5579 101.834 28.043 102.044 27.3594C102.263 26.6758 102.372 25.8327 102.372 24.8301C102.372 23.8184 102.263 22.9798 102.044 22.3145C101.834 21.64 101.497 21.1341 101.032 20.7969C100.567 20.4596 99.9613 20.291 99.2139 20.291C98.111 20.291 97.3089 20.6693 96.8076 21.4258C96.3154 22.1823 96.0693 23.3171 96.0693 24.8301ZM123.632 21.2207C123.632 22.041 123.372 22.7428 122.853 23.3262C122.342 23.9004 121.586 24.2695 120.583 24.4336V24.543C121.64 24.6706 122.493 25.0397 123.14 25.6504C123.787 26.252 124.11 27.013 124.11 27.9336C124.11 28.8086 123.882 29.5924 123.427 30.2852C122.971 30.9688 122.246 31.5111 121.253 31.9121C120.259 32.304 118.961 32.5 117.356 32.5H110.083V17.2148H117.356C118.55 17.2148 119.621 17.3424 120.569 17.5977C121.517 17.8438 122.265 18.2585 122.812 18.8418C123.358 19.4251 123.632 20.2181 123.632 21.2207ZM119.79 27.7148C119.79 27.1133 119.553 26.6803 119.079 26.416C118.614 26.1426 117.922 26.0059 117.001 26.0059H114.253V29.6152H117.083C117.867 29.6152 118.514 29.4694 119.024 29.1777C119.535 28.8861 119.79 28.3984 119.79 27.7148ZM119.407 21.5488C119.407 21.0749 119.22 20.724 118.847 20.4961C118.473 20.2682 117.922 20.1543 117.192 20.1543H114.253V23.1758H116.714C117.598 23.1758 118.268 23.0482 118.724 22.793C119.179 22.5378 119.407 22.123 119.407 21.5488ZM133.954 16.9004C136.005 16.9004 137.577 17.347 138.671 18.2402C139.765 19.1335 140.312 20.4915 140.312 22.3145V32.5H137.399L136.593 30.4219H136.483C136.046 30.9688 135.599 31.4154 135.144 31.7617C134.688 32.1081 134.164 32.3633 133.571 32.5273C132.979 32.6914 132.259 32.7734 131.411 32.7734C130.509 32.7734 129.698 32.6003 128.978 32.2539C128.267 31.9076 127.706 31.3789 127.296 30.668C126.886 29.9479 126.681 29.0365 126.681 27.9336C126.681 26.3112 127.25 25.1172 128.39 24.3516C129.529 23.5768 131.238 23.1484 133.517 23.0664L136.169 22.9844V22.3145C136.169 21.5124 135.959 20.9245 135.54 20.5508C135.121 20.1771 134.537 19.9902 133.79 19.9902C133.052 19.9902 132.327 20.0951 131.616 20.3047C130.905 20.5143 130.194 20.7786 129.483 21.0977L128.103 18.2812C128.914 17.8529 129.821 17.5156 130.823 17.2695C131.835 17.0234 132.879 16.9004 133.954 16.9004ZM136.169 25.418L134.556 25.4727C133.207 25.5091 132.268 25.7507 131.739 26.1973C131.22 26.6439 130.96 27.2318 130.96 27.9609C130.96 28.599 131.147 29.0547 131.521 29.3281C131.894 29.5924 132.382 29.7246 132.983 29.7246C133.877 29.7246 134.629 29.4603 135.239 28.9316C135.859 28.403 136.169 27.651 136.169 26.6758V25.418ZM153.122 16.9277C154.845 16.9277 156.235 17.5977 157.292 18.9375C158.358 20.2773 158.892 22.2415 158.892 24.8301C158.892 26.5618 158.641 28.0202 158.14 29.2051C157.638 30.3809 156.946 31.2695 156.062 31.8711C155.177 32.4727 154.161 32.7734 153.013 32.7734C152.274 32.7734 151.641 32.6823 151.112 32.5C150.584 32.3086 150.132 32.0671 149.759 31.7754C149.385 31.4746 149.062 31.1556 148.788 30.8184H148.569C148.642 31.1829 148.697 31.5566 148.733 31.9395C148.77 32.3223 148.788 32.696 148.788 33.0605V39.2266H144.618V17.2148H148.009L148.597 19.1973H148.788C149.062 18.7871 149.394 18.4089 149.786 18.0625C150.178 17.7161 150.647 17.4427 151.194 17.2422C151.75 17.0326 152.393 16.9277 153.122 16.9277ZM151.782 20.2637C151.053 20.2637 150.474 20.4141 150.046 20.7148C149.618 21.0156 149.303 21.4668 149.103 22.0684C148.911 22.6699 148.806 23.431 148.788 24.3516V24.8027C148.788 25.7871 148.879 26.6211 149.062 27.3047C149.253 27.9883 149.567 28.5078 150.005 28.8633C150.451 29.2188 151.062 29.3965 151.837 29.3965C152.475 29.3965 152.999 29.2188 153.409 28.8633C153.819 28.5078 154.125 27.9883 154.325 27.3047C154.535 26.612 154.64 25.7689 154.64 24.7754C154.64 23.2806 154.407 22.1549 153.942 21.3984C153.478 20.6419 152.757 20.2637 151.782 20.2637ZM166.507 23.1211H169.446C171.014 23.1211 172.308 23.2852 173.329 23.6133C174.35 23.9414 175.111 24.4427 175.612 25.1172C176.114 25.7826 176.364 26.6211 176.364 27.6328C176.364 28.6172 176.136 29.474 175.681 30.2031C175.225 30.9323 174.5 31.4974 173.507 31.8984C172.513 32.2995 171.215 32.5 169.61 32.5H162.337V17.2148H166.507V23.1211ZM172.194 27.6875C172.194 27.0951 171.957 26.6667 171.483 26.4023C171.009 26.138 170.303 26.0059 169.364 26.0059H166.507V29.6152H169.419C170.23 29.6152 170.896 29.4694 171.415 29.1777C171.935 28.877 172.194 28.3802 172.194 27.6875ZM195.313 16.9277C197.036 16.9277 198.426 17.5977 199.483 18.9375C200.55 20.2773 201.083 22.2415 201.083 24.8301C201.083 26.5618 200.832 28.0202 200.331 29.2051C199.83 30.3809 199.137 31.2695 198.253 31.8711C197.369 32.4727 196.353 32.7734 195.204 32.7734C194.466 32.7734 193.832 32.6823 193.304 32.5C192.775 32.3086 192.324 32.0671 191.95 31.7754C191.576 31.4746 191.253 31.1556 190.979 30.8184H190.761C190.834 31.1829 190.888 31.5566 190.925 31.9395C190.961 32.3223 190.979 32.696 190.979 33.0605V39.2266H186.81V17.2148H190.2L190.788 19.1973H190.979C191.253 18.7871 191.586 18.4089 191.978 18.0625C192.369 17.7161 192.839 17.4427 193.386 17.2422C193.942 17.0326 194.584 16.9277 195.313 16.9277ZM193.974 20.2637C193.244 20.2637 192.666 20.4141 192.237 20.7148C191.809 21.0156 191.494 21.4668 191.294 22.0684C191.103 22.6699 190.998 23.431 190.979 24.3516V24.8027C190.979 25.7871 191.071 26.6211 191.253 27.3047C191.444 27.9883 191.759 28.5078 192.196 28.8633C192.643 29.2188 193.254 29.3965 194.028 29.3965C194.666 29.3965 195.19 29.2188 195.601 28.8633C196.011 28.5078 196.316 27.9883 196.517 27.3047C196.726 26.612 196.831 25.7689 196.831 24.7754C196.831 23.2806 196.599 22.1549 196.134 21.3984C195.669 20.6419 194.949 20.2637 193.974 20.2637ZM202.341 17.2148H206.907L209.792 25.8145C209.883 26.0879 209.961 26.3659 210.024 26.6484C210.088 26.931 210.143 27.2227 210.188 27.5234C210.234 27.8242 210.271 28.1387 210.298 28.4668H210.38C210.435 27.9746 210.507 27.5143 210.599 27.0859C210.699 26.6576 210.822 26.2337 210.968 25.8145L213.798 17.2148H218.269L211.802 34.4551C211.41 35.5124 210.899 36.3919 210.271 37.0938C209.642 37.8047 208.917 38.3379 208.097 38.6934C207.285 39.0488 206.392 39.2266 205.417 39.2266C204.943 39.2266 204.533 39.1992 204.187 39.1445C203.84 39.099 203.544 39.0488 203.298 38.9941V35.6855C203.489 35.7311 203.731 35.7721 204.022 35.8086C204.314 35.8451 204.619 35.8633 204.938 35.8633C205.522 35.8633 206.023 35.7402 206.442 35.4941C206.862 35.248 207.213 34.9154 207.495 34.4961C207.778 34.0859 208.001 33.6348 208.165 33.1426L208.411 32.3906L202.341 17.2148ZM226.677 32.7734C225.164 32.7734 223.874 32.5 222.808 31.9531C221.741 31.3971 220.93 30.5404 220.374 29.3828C219.818 28.2253 219.54 26.7441 219.54 24.9395C219.54 23.071 219.854 21.5488 220.483 20.373C221.121 19.1882 222.001 18.3177 223.122 17.7617C224.252 17.2057 225.56 16.9277 227.046 16.9277C228.103 16.9277 229.015 17.0326 229.78 17.2422C230.555 17.4427 231.229 17.6842 231.804 17.9668L230.573 21.1934C229.917 20.929 229.306 20.7148 228.741 20.5508C228.176 20.3776 227.611 20.291 227.046 20.291C226.317 20.291 225.711 20.4642 225.228 20.8105C224.744 21.1478 224.384 21.6582 224.147 22.3418C223.91 23.0254 223.792 23.8822 223.792 24.9121C223.792 25.9238 223.92 26.7624 224.175 27.4277C224.43 28.0931 224.799 28.5898 225.282 28.918C225.765 29.237 226.353 29.3965 227.046 29.3965C227.912 29.3965 228.682 29.2826 229.356 29.0547C230.031 28.8177 230.687 28.4896 231.325 28.0703V31.6387C230.687 32.0397 230.017 32.3268 229.315 32.5C228.623 32.6823 227.743 32.7734 226.677 32.7734ZM241.087 32.7734C239.574 32.7734 238.284 32.5 237.218 31.9531C236.151 31.3971 235.34 30.5404 234.784 29.3828C234.228 28.2253 233.95 26.7441 233.95 24.9395C233.95 23.071 234.265 21.5488 234.894 20.373C235.532 19.1882 236.411 18.3177 237.532 17.7617C238.662 17.2057 239.97 16.9277 241.456 16.9277C242.513 16.9277 243.425 17.0326 244.19 17.2422C244.965 17.4427 245.64 17.6842 246.214 17.9668L244.983 21.1934C244.327 20.929 243.716 20.7148 243.151 20.5508C242.586 20.3776 242.021 20.291 241.456 20.291C240.727 20.291 240.121 20.4642 239.638 20.8105C239.155 21.1478 238.795 21.6582 238.558 22.3418C238.321 23.0254 238.202 23.8822 238.202 24.9121C238.202 25.9238 238.33 26.7624 238.585 27.4277C238.84 28.0931 239.209 28.5898 239.692 28.918C240.175 29.237 240.763 29.3965 241.456 29.3965C242.322 29.3965 243.092 29.2826 243.767 29.0547C244.441 28.8177 245.097 28.4896 245.735 28.0703V31.6387C245.097 32.0397 244.427 32.3268 243.726 32.5C243.033 32.6823 242.153 32.7734 241.087 32.7734ZM259.312 17.2148H263.905L257.849 24.543L264.438 32.5H259.708L253.46 24.748V32.5H249.29V17.2148H253.46V24.6387L259.312 17.2148ZM280.517 24.8301C280.517 26.1061 280.343 27.2363 279.997 28.2207C279.66 29.2051 279.163 30.0391 278.507 30.7227C277.86 31.3971 277.076 31.9076 276.155 32.2539C275.244 32.6003 274.214 32.7734 273.065 32.7734C271.99 32.7734 271.001 32.6003 270.099 32.2539C269.205 31.9076 268.426 31.3971 267.761 30.7227C267.104 30.0391 266.594 29.2051 266.229 28.2207C265.874 27.2363 265.696 26.1061 265.696 24.8301C265.696 23.1348 265.997 21.6992 266.599 20.5234C267.2 19.3477 268.057 18.4544 269.169 17.8438C270.281 17.2331 271.607 16.9277 273.147 16.9277C274.578 16.9277 275.845 17.2331 276.948 17.8438C278.06 18.4544 278.931 19.3477 279.56 20.5234C280.198 21.6992 280.517 23.1348 280.517 24.8301ZM269.948 24.8301C269.948 25.8327 270.058 26.6758 270.276 27.3594C270.495 28.043 270.837 28.5579 271.302 28.9043C271.767 29.2507 272.373 29.4238 273.12 29.4238C273.858 29.4238 274.455 29.2507 274.911 28.9043C275.376 28.5579 275.713 28.043 275.923 27.3594C276.142 26.6758 276.251 25.8327 276.251 24.8301C276.251 23.8184 276.142 22.9798 275.923 22.3145C275.713 21.64 275.376 21.1341 274.911 20.7969C274.446 20.4596 273.84 20.291 273.093 20.291C271.99 20.291 271.188 20.6693 270.687 21.4258C270.194 22.1823 269.948 23.3171 269.948 24.8301ZM294.517 17.2148V20.3457H288.132V32.5H283.962V17.2148H294.517ZM311.251 24.8301C311.251 26.1061 311.078 27.2363 310.731 28.2207C310.394 29.2051 309.897 30.0391 309.241 30.7227C308.594 31.3971 307.81 31.9076 306.89 32.2539C305.978 32.6003 304.948 32.7734 303.8 32.7734C302.724 32.7734 301.735 32.6003 300.833 32.2539C299.94 31.9076 299.16 31.3971 298.495 30.7227C297.839 30.0391 297.328 29.2051 296.964 28.2207C296.608 27.2363 296.431 26.1061 296.431 24.8301C296.431 23.1348 296.731 21.6992 297.333 20.5234C297.935 19.3477 298.791 18.4544 299.903 17.8438C301.015 17.2331 302.341 16.9277 303.882 16.9277C305.313 16.9277 306.58 17.2331 307.683 17.8438C308.795 18.4544 309.665 19.3477 310.294 20.5234C310.932 21.6992 311.251 23.1348 311.251 24.8301ZM300.683 24.8301C300.683 25.8327 300.792 26.6758 301.011 27.3594C301.229 28.043 301.571 28.5579 302.036 28.9043C302.501 29.2507 303.107 29.4238 303.854 29.4238C304.593 29.4238 305.19 29.2507 305.646 28.9043C306.11 28.5579 306.448 28.043 306.657 27.3594C306.876 26.6758 306.985 25.8327 306.985 24.8301C306.985 23.8184 306.876 22.9798 306.657 22.3145C306.448 21.64 306.11 21.1341 305.646 20.7969C305.181 20.4596 304.575 20.291 303.827 20.291C302.724 20.291 301.922 20.6693 301.421 21.4258C300.929 22.1823 300.683 23.3171 300.683 24.8301ZM78.542 51.2148L72.9092 58.543L79.0752 66.5H74.6182L68.7939 58.748V66.5H64.9111V58.748L59.0869 66.5H54.6299L60.7959 58.543L55.1631 51.2148H59.4697L64.9111 58.6387V51.2148H68.7939V58.6387L74.2354 51.2148H78.542ZM87.5654 50.9277C88.9782 50.9277 90.195 51.2012 91.2158 51.748C92.2367 52.2858 93.0251 53.0697 93.5811 54.0996C94.137 55.1296 94.415 56.3874 94.415 57.873V59.8965H84.5576C84.6032 61.0723 84.9541 61.9974 85.6104 62.6719C86.2757 63.3372 87.1963 63.6699 88.3721 63.6699C89.3473 63.6699 90.2406 63.5697 91.0518 63.3691C91.863 63.1686 92.6969 62.8678 93.5537 62.4668V65.6934C92.7972 66.0671 92.0042 66.3405 91.1748 66.5137C90.3545 66.6868 89.3564 66.7734 88.1807 66.7734C86.6494 66.7734 85.2913 66.4909 84.1064 65.9258C82.9307 65.3607 82.0055 64.4993 81.3311 63.3418C80.6657 62.1842 80.333 60.7259 80.333 58.9668C80.333 57.1803 80.6338 55.6947 81.2354 54.5098C81.846 53.3158 82.6937 52.4225 83.7783 51.8301C84.863 51.2285 86.1253 50.9277 87.5654 50.9277ZM87.5928 53.8945C86.7816 53.8945 86.1071 54.1543 85.5693 54.6738C85.0407 55.1934 84.7354 56.0091 84.6533 57.1211H90.5049C90.4958 56.5013 90.3818 55.9499 90.1631 55.4668C89.9535 54.9837 89.6344 54.6009 89.2061 54.3184C88.7868 54.0358 88.249 53.8945 87.5928 53.8945ZM104.013 66.7734C102.5 66.7734 101.21 66.5 100.144 65.9531C99.0771 65.3971 98.266 64.5404 97.71 63.3828C97.154 62.2253 96.876 60.7441 96.876 58.9395C96.876 57.071 97.1904 55.5488 97.8193 54.373C98.4574 53.1882 99.3369 52.3177 100.458 51.7617C101.588 51.2057 102.896 50.9277 104.382 50.9277C105.439 50.9277 106.351 51.0326 107.116 51.2422C107.891 51.4427 108.565 51.6842 109.14 51.9668L107.909 55.1934C107.253 54.929 106.642 54.7148 106.077 54.5508C105.512 54.3776 104.947 54.291 104.382 54.291C103.653 54.291 103.047 54.4642 102.563 54.8105C102.08 55.1478 101.72 55.6582 101.483 56.3418C101.246 57.0254 101.128 57.8822 101.128 58.9121C101.128 59.9238 101.256 60.7624 101.511 61.4277C101.766 62.0931 102.135 62.5898 102.618 62.918C103.101 63.237 103.689 63.3965 104.382 63.3965C105.248 63.3965 106.018 63.2826 106.692 63.0547C107.367 62.8177 108.023 62.4896 108.661 62.0703V65.6387C108.023 66.0397 107.353 66.3268 106.651 66.5C105.959 66.6823 105.079 66.7734 104.013 66.7734ZM124.862 54.3457H119.858V66.5H115.688V54.3457H110.671V51.2148H124.862V54.3457ZM141.61 58.8301C141.61 60.1061 141.437 61.2363 141.091 62.2207C140.754 63.2051 140.257 64.0391 139.601 64.7227C138.953 65.3971 138.17 65.9076 137.249 66.2539C136.338 66.6003 135.308 66.7734 134.159 66.7734C133.084 66.7734 132.095 66.6003 131.192 66.2539C130.299 65.9076 129.52 65.3971 128.854 64.7227C128.198 64.0391 127.688 63.2051 127.323 62.2207C126.968 61.2363 126.79 60.1061 126.79 58.8301C126.79 57.1348 127.091 55.6992 127.692 54.5234C128.294 53.3477 129.151 52.4544 130.263 51.8438C131.375 51.2331 132.701 50.9277 134.241 50.9277C135.672 50.9277 136.939 51.2331 138.042 51.8438C139.154 52.4544 140.024 53.3477 140.653 54.5234C141.291 55.6992 141.61 57.1348 141.61 58.8301ZM131.042 58.8301C131.042 59.8327 131.151 60.6758 131.37 61.3594C131.589 62.043 131.931 62.5579 132.396 62.9043C132.86 63.2507 133.466 63.4238 134.214 63.4238C134.952 63.4238 135.549 63.2507 136.005 62.9043C136.47 62.5579 136.807 62.043 137.017 61.3594C137.235 60.6758 137.345 59.8327 137.345 58.8301C137.345 57.8184 137.235 56.9798 137.017 56.3145C136.807 55.64 136.47 55.1341 136.005 54.7969C135.54 54.4596 134.934 54.291 134.187 54.291C133.084 54.291 132.282 54.6693 131.78 55.4258C131.288 56.1823 131.042 57.3171 131.042 58.8301ZM158.604 55.2207C158.604 56.041 158.345 56.7428 157.825 57.3262C157.315 57.9004 156.558 58.2695 155.556 58.4336V58.543C156.613 58.6706 157.465 59.0397 158.112 59.6504C158.759 60.252 159.083 61.013 159.083 61.9336C159.083 62.8086 158.855 63.5924 158.399 64.2852C157.944 64.9688 157.219 65.5111 156.226 65.9121C155.232 66.304 153.933 66.5 152.329 66.5H145.056V51.2148H152.329C153.523 51.2148 154.594 51.3424 155.542 51.5977C156.49 51.8438 157.237 52.2585 157.784 52.8418C158.331 53.4251 158.604 54.2181 158.604 55.2207ZM154.763 61.7148C154.763 61.1133 154.526 60.6803 154.052 60.416C153.587 60.1426 152.894 60.0059 151.974 60.0059H149.226V63.6152H152.056C152.84 63.6152 153.487 63.4694 153.997 63.1777C154.507 62.8861 154.763 62.3984 154.763 61.7148ZM154.38 55.5488C154.38 55.0749 154.193 54.724 153.819 54.4961C153.446 54.2682 152.894 54.1543 152.165 54.1543H149.226V57.1758H151.687C152.571 57.1758 153.241 57.0482 153.696 56.793C154.152 56.5378 154.38 56.123 154.38 55.5488ZM176.556 58.8301C176.556 60.1061 176.382 61.2363 176.036 62.2207C175.699 63.2051 175.202 64.0391 174.546 64.7227C173.899 65.3971 173.115 65.9076 172.194 66.2539C171.283 66.6003 170.253 66.7734 169.104 66.7734C168.029 66.7734 167.04 66.6003 166.138 66.2539C165.244 65.9076 164.465 65.3971 163.8 64.7227C163.144 64.0391 162.633 63.2051 162.269 62.2207C161.913 61.2363 161.735 60.1061 161.735 58.8301C161.735 57.1348 162.036 55.6992 162.638 54.5234C163.239 53.3477 164.096 52.4544 165.208 51.8438C166.32 51.2331 167.646 50.9277 169.187 50.9277C170.618 50.9277 171.884 51.2331 172.987 51.8438C174.099 52.4544 174.97 53.3477 175.599 54.5234C176.237 55.6992 176.556 57.1348 176.556 58.8301ZM165.987 58.8301C165.987 59.8327 166.097 60.6758 166.315 61.3594C166.534 62.043 166.876 62.5579 167.341 62.9043C167.806 63.2507 168.412 63.4238 169.159 63.4238C169.897 63.4238 170.494 63.2507 170.95 62.9043C171.415 62.5579 171.752 62.043 171.962 61.3594C172.181 60.6758 172.29 59.8327 172.29 58.8301C172.29 57.8184 172.181 56.9798 171.962 56.3145C171.752 55.64 171.415 55.1341 170.95 54.7969C170.485 54.4596 169.879 54.291 169.132 54.291C168.029 54.291 167.227 54.6693 166.726 55.4258C166.233 56.1823 165.987 57.3171 165.987 58.8301ZM190.556 51.2148V54.3457H184.171V66.5H180.001V51.2148H190.556ZM207.29 58.8301C207.29 60.1061 207.117 61.2363 206.771 62.2207C206.433 63.2051 205.937 64.0391 205.28 64.7227C204.633 65.3971 203.849 65.9076 202.929 66.2539C202.017 66.6003 200.987 66.7734 199.839 66.7734C198.763 66.7734 197.774 66.6003 196.872 66.2539C195.979 65.9076 195.2 65.3971 194.534 64.7227C193.878 64.0391 193.368 63.2051 193.003 62.2207C192.647 61.2363 192.47 60.1061 192.47 58.8301C192.47 57.1348 192.771 55.6992 193.372 54.5234C193.974 53.3477 194.83 52.4544 195.942 51.8438C197.054 51.2331 198.381 50.9277 199.921 50.9277C201.352 50.9277 202.619 51.2331 203.722 51.8438C204.834 52.4544 205.704 53.3477 206.333 54.5234C206.971 55.6992 207.29 57.1348 207.29 58.8301ZM196.722 58.8301C196.722 59.8327 196.831 60.6758 197.05 61.3594C197.269 62.043 197.61 62.5579 198.075 62.9043C198.54 63.2507 199.146 63.4238 199.894 63.4238C200.632 63.4238 201.229 63.2507 201.685 62.9043C202.149 62.5579 202.487 62.043 202.696 61.3594C202.915 60.6758 203.024 59.8327 203.024 58.8301C203.024 57.8184 202.915 56.9798 202.696 56.3145C202.487 55.64 202.149 55.1341 201.685 54.7969C201.22 54.4596 200.614 54.291 199.866 54.291C198.763 54.291 197.961 54.6693 197.46 55.4258C196.968 56.1823 196.722 57.3171 196.722 58.8301ZM220.333 66.5H215.821L219.937 60.457C219.417 60.2383 218.929 59.9375 218.474 59.5547C218.018 59.1628 217.649 58.6706 217.366 58.0781C217.084 57.4857 216.942 56.7747 216.942 55.9453C216.942 54.4232 217.517 53.2565 218.665 52.4453C219.823 51.625 221.313 51.2148 223.136 51.2148H230.245V66.5H226.075V60.8125H223.778L220.333 66.5ZM221.03 55.9727C221.03 56.6107 221.281 57.112 221.782 57.4766C222.293 57.832 222.949 58.0098 223.751 58.0098H226.075V54.1543H223.218C222.47 54.1543 221.919 54.3366 221.563 54.7012C221.208 55.0566 221.03 55.4805 221.03 55.9727ZM240.171 50.9277C241.274 50.9277 242.304 51.0736 243.261 51.3652C244.218 51.6478 244.993 52.0898 245.585 52.6914C246.177 53.2839 246.474 54.0495 246.474 54.9883C246.474 55.9089 246.196 56.6426 245.64 57.1895C245.084 57.7272 244.345 58.1146 243.425 58.3516V58.4883C244.072 58.6432 244.655 58.8529 245.175 59.1172C245.703 59.3815 246.123 59.7461 246.433 60.2109C246.743 60.6758 246.897 61.2865 246.897 62.043C246.897 62.8906 246.629 63.6745 246.091 64.3945C245.553 65.1055 244.728 65.6797 243.616 66.1172C242.513 66.5547 241.096 66.7734 239.364 66.7734C238.544 66.7734 237.769 66.737 237.04 66.6641C236.32 66.5911 235.659 66.4863 235.058 66.3496C234.456 66.2038 233.932 66.0306 233.485 65.8301V62.3848C234.114 62.6764 234.889 62.9453 235.81 63.1914C236.739 63.4375 237.728 63.5605 238.776 63.5605C239.533 63.5605 240.216 63.5059 240.827 63.3965C241.447 63.2871 241.935 63.1048 242.29 62.8496C242.655 62.5853 242.837 62.2344 242.837 61.7969C242.837 61.3867 242.677 61.0495 242.358 60.7852C242.049 60.5117 241.57 60.3112 240.923 60.1836C240.285 60.0469 239.474 59.9785 238.489 59.9785H236.876V57.0938H238.407C239.793 57.0938 240.864 56.9798 241.62 56.752C242.377 56.5241 242.755 56.1048 242.755 55.4941C242.755 55.002 242.513 54.6328 242.03 54.3867C241.547 54.1406 240.75 54.0176 239.638 54.0176C238.918 54.0176 238.125 54.1042 237.259 54.2773C236.393 54.4414 235.582 54.6784 234.825 54.9883L233.595 52.0762C234.479 51.7389 235.436 51.4655 236.466 51.2559C237.505 51.0371 238.74 50.9277 240.171 50.9277ZM250.165 66.5V51.2148H254.335V57.1211H256.345C257.903 57.1211 259.188 57.2852 260.2 57.6133C261.221 57.9414 261.978 58.4427 262.47 59.1172C262.962 59.7826 263.208 60.6211 263.208 61.6328C263.208 62.6172 262.98 63.474 262.524 64.2031C262.069 64.9323 261.349 65.4974 260.364 65.8984C259.38 66.2995 258.09 66.5 256.495 66.5H250.165ZM254.335 63.6152H256.263C257.074 63.6152 257.739 63.4694 258.259 63.1777C258.778 62.877 259.038 62.3802 259.038 61.6875C259.038 61.0951 258.801 60.6667 258.327 60.4023C257.853 60.138 257.147 60.0059 256.208 60.0059H254.335V63.6152ZM265.423 66.5V51.2148H269.593V66.5H265.423ZM284.003 51.2148H288.597L282.54 58.543L289.13 66.5H284.399L278.151 58.748V66.5H273.981V51.2148H278.151V58.6387L284.003 51.2148ZM297.579 50.9004C299.63 50.9004 301.202 51.347 302.296 52.2402C303.39 53.1335 303.937 54.4915 303.937 56.3145V66.5H301.024L300.218 64.4219H300.108C299.671 64.9688 299.224 65.4154 298.769 65.7617C298.313 66.1081 297.789 66.3633 297.196 66.5273C296.604 66.6914 295.884 66.7734 295.036 66.7734C294.134 66.7734 293.323 66.6003 292.603 66.2539C291.892 65.9076 291.331 65.3789 290.921 64.668C290.511 63.9479 290.306 63.0365 290.306 61.9336C290.306 60.3112 290.875 59.1172 292.015 58.3516C293.154 57.5768 294.863 57.1484 297.142 57.0664L299.794 56.9844V56.3145C299.794 55.5124 299.584 54.9245 299.165 54.5508C298.746 54.1771 298.162 53.9902 297.415 53.9902C296.677 53.9902 295.952 54.0951 295.241 54.3047C294.53 54.5143 293.819 54.7786 293.108 55.0977L291.728 52.2812C292.539 51.8529 293.446 51.5156 294.448 51.2695C295.46 51.0234 296.504 50.9004 297.579 50.9004ZM299.794 59.418L298.181 59.4727C296.832 59.5091 295.893 59.7507 295.364 60.1973C294.845 60.6439 294.585 61.2318 294.585 61.9609C294.585 62.599 294.772 63.0547 295.146 63.3281C295.519 63.5924 296.007 63.7246 296.608 63.7246C297.502 63.7246 298.254 63.4603 298.864 62.9316C299.484 62.403 299.794 61.651 299.794 60.6758V59.418Z" fill="#338EF7"/>
</svg>
